<svg width="265" height="100" viewBox="0 0 265 100" fill="none" xmlns="http://www.w3.org/2000/svg">
<path d="M236.94 72.0909H231L244.348 35H250.813L264.161 72.0909H258.221L247.734 41.7372H247.445L236.94 72.0909ZM237.936 57.5661H257.206V62.2749H237.936V57.5661Z" fill="#ECECF2"/>
<path d="M53.2642 67.3V30.2091H76.5184V35.0266H58.8604V46.3277H75.305V51.1271H58.8604V62.4825H76.7358V67.3H53.2642Z" fill="#CBCBDD"/>
<path d="M35.213 39.501L35.206 34.288L25.586 28V32.022L31.931 36.2L31.936 39.402L28.988 41.398L26.977 39.931V37.446L23.7 35.204V39.727L18.505 42.915L18.495 51.335L14.822 53.403L12.937 51.926V49.488L15.169 47.959V47.939V44.166L11.152 46.854L8.081 44.856L5.276 46.693L9.659 49.694V51.536L6.5 53.674L3.277 51.492V44.23L8.062 40.991L8.066 37.875L14.203 41.827L19.361 38.394L16.216 36.559L14.159 37.947L9.677 34.983L14.731 32.036L19.11 34.603V30.775L14.736 28.211L4.794 34.008L4.787 39.223L0 42.465V53.257L4.787 56.499L4.794 61.714L14.414 68V63.981L8.069 59.803L8.064 56.601L11.012 54.605L13.023 56.072V58.557L16.3 60.798V56.275L21.569 53.088L21.628 44.667L25.178 42.599L27.063 44.076V46.514L24.831 48.043V48.063V51.837L28.848 49.148L31.919 51.146L34.724 49.309L30.34 46.306V44.466L33.5 42.329L36.723 44.511V51.772L31.939 55.012L31.934 58.127L25.797 54.173L20.639 57.584L23.784 59.416L25.841 58.055L30.323 61.019L25.269 63.966L20.89 61.399V65.225L25.264 67.789L35.206 61.995L35.213 56.779L40 53.537V42.743L35.213 39.501Z" fill="#AC6AFF"/>
<path d="M89.1608 67.5882H77.1534V30.4973H89.5411C93.1754 30.4973 96.2965 31.2398 98.9044 32.7249C101.512 34.1979 103.511 36.3169 104.899 39.0818C106.3 41.8347 107 45.1369 107 48.9884C107 52.8521 106.294 56.1724 104.881 58.9494C103.48 61.7264 101.452 63.8634 98.7958 65.3606C96.1395 66.8457 92.9279 67.5882 89.1608 67.5882ZM82.7496 62.6983H88.8529C91.6782 62.6983 94.0266 62.167 95.898 61.1045C97.7695 60.03 99.1701 58.4785 100.1 56.4501C101.029 54.4096 101.494 51.9224 101.494 48.9884C101.494 46.0786 101.029 43.6095 100.1 41.5811C99.1821 39.5527 97.8117 38.0133 95.9886 36.9629C94.1654 35.9124 91.9016 35.3872 89.197 35.3872H82.7496V62.6983Z" fill="#EDEDFB"/>
<path d="M131.852 33H137.466V57.3952C137.466 59.9911 136.857 62.2912 135.637 64.2955C134.418 66.2876 132.703 67.8572 130.494 69.0043C128.284 70.1392 125.694 70.7067 122.724 70.7067C119.766 70.7067 117.182 70.1392 114.973 69.0043C112.763 67.8572 111.049 66.2876 109.829 64.2955C108.61 62.2912 108 59.9911 108 57.3952V33H113.596V56.9425C113.596 58.6207 113.965 60.1119 114.701 61.4158C115.45 62.7198 116.506 63.7461 117.87 64.4947C119.235 65.2312 120.853 65.5994 122.724 65.5994C124.608 65.5994 126.232 65.2312 127.596 64.4947C128.972 63.7461 130.023 62.7198 130.747 61.4158C131.484 60.1119 131.852 58.6207 131.852 56.9425V33Z" fill="#9494AE"/>
<path d="M179.732 42.5548L164.177 76.2265L159.508 74.0694L153.801 41.4681L153.488 41.3238L142.08 66.0185L137 63.6716L152.555 30L157.257 32.1722L162.966 64.814L163.278 64.9583L174.701 40.2307L179.732 42.5548Z" fill="#FBFBFF"/>
<path d="M213.414 53.0525C213.414 57.0128 212.69 60.4176 211.241 63.267C209.792 66.1044 207.806 68.2897 205.283 69.8231C202.771 71.3444 199.916 72.1051 196.716 72.1051C193.505 72.1051 190.637 71.3444 188.114 69.8231C185.602 68.2897 183.622 66.0983 182.173 63.2489C180.724 60.3995 180 57.0007 180 53.0525C180 49.0923 180.724 45.6935 182.173 42.8561C183.622 40.0067 185.602 37.8213 188.114 36.3C190.637 34.7667 193.505 34 196.716 34C199.916 34 202.771 34.7667 205.283 36.3C207.806 37.8213 209.792 40.0067 211.241 42.8561C212.69 45.6935 213.414 49.0923 213.414 53.0525ZM207.872 53.0525C207.872 50.0341 207.383 47.4925 206.405 45.4279C205.44 43.3512 204.111 41.7816 202.421 40.7191C200.743 39.6445 198.841 39.1072 196.716 39.1072C194.579 39.1072 192.672 39.6445 190.993 40.7191C189.315 41.7816 187.987 43.3512 187.009 45.4279C186.043 47.4925 185.56 50.0341 185.56 53.0525C185.56 56.071 186.043 58.6186 187.009 60.6953C187.987 62.7599 189.315 64.3295 190.993 65.4041C192.672 66.4666 194.579 66.9978 196.716 66.9978C198.841 66.9978 200.743 66.4666 202.421 65.4041C204.111 64.3295 205.44 62.7599 206.405 60.6953C207.383 58.6186 207.872 56.071 207.872 53.0525Z" fill="#C5C5FA"/>
<path d="M217.049 35L227.372 65.2088H227.789L238.112 35H244.161L230.813 72.0909H224.348L211 35H217.049Z" fill="#B3B3BB"/>
</svg>
